<svg width="77" height="148" viewBox="0 0 77 148" fill="none" xmlns="http://www.w3.org/2000/svg">
<path fill-rule="evenodd" clip-rule="evenodd" d="M34.0374 2.78562C33.0295 3.78347 32.4728 4.93779 32.2735 5.55972C32.1154 6.053 32.0651 6.91071 32.0685 7.79089C32.0718 8.66807 32.1283 9.55755 32.1793 10.1083C32.1823 10.14 32.1616 10.1691 32.1307 10.1769C32.0998 10.1847 32.0679 10.1688 32.0554 10.1395C32.02 10.0561 31.9498 9.93348 31.8565 9.83928C31.7623 9.74427 31.6561 9.68882 31.5446 9.70909C31.4174 9.73223 31.295 9.78373 31.1941 9.87641C31.0934 9.9688 31.0102 10.1056 30.9663 10.3059C30.9398 10.4267 30.9277 10.5707 30.9349 10.7418C30.951 11.118 31.0071 11.5712 31.0933 11.9882C31.1799 12.4071 31.2954 12.7823 31.4272 13.0071C31.4977 13.1274 31.5687 13.2777 31.6404 13.4317C31.6464 13.4447 31.6525 13.4577 31.6585 13.4707C31.725 13.6135 31.7925 13.7587 31.8628 13.8902C31.9399 14.0343 32.0179 14.1573 32.0977 14.2407C32.1782 14.3247 32.25 14.3579 32.317 14.3495C32.5005 14.3266 32.5994 14.2705 32.6578 14.2137C32.7124 14.1607 32.7369 14.1028 32.7602 14.0479C32.7624 14.0428 32.7645 14.0377 32.7667 14.0326C32.7704 14.0239 32.7753 14.0138 32.7817 14.0048C32.7857 13.9991 32.8011 13.9776 32.8304 13.9724C32.8697 13.9655 32.8934 13.9921 32.9009 14.0031C32.9087 14.0146 32.9127 14.0269 32.9148 14.0344C32.9233 14.0641 32.9282 14.1161 32.933 14.1739C32.9344 14.1914 32.9359 14.2101 32.9375 14.2299C32.947 14.3489 32.9596 14.5076 32.9869 14.6782C32.9993 14.7555 33.0117 14.8549 33.0257 14.967C33.0303 15.0035 33.035 15.0414 33.04 15.0803C33.0603 15.2396 33.0845 15.4182 33.1167 15.5984C33.1815 15.962 33.2768 16.3212 33.429 16.543C33.4363 16.5536 33.4402 16.5661 33.4403 16.579C33.4475 17.3671 33.4566 18.7165 33.4542 19.6185C33.453 20.0652 33.449 20.4063 33.4401 20.5126C33.4304 20.6297 33.3624 20.7485 33.2636 20.8648C33.1637 20.9824 33.0258 21.1048 32.8635 21.2293C32.5387 21.4786 32.1072 21.743 31.6625 22.0017C30.7688 22.5217 29.2291 23.2183 27.4002 23.8495C26.5491 24.1433 25.948 24.235 25.3652 24.3238C25.3184 24.331 25.2717 24.3381 25.2251 24.3453C24.5992 24.4419 23.9702 24.5541 23.0392 24.9313C22.9354 24.9734 22.8347 25.0139 22.737 25.0532L22.669 25.0806C21.8558 25.408 21.2489 25.6575 20.6832 26.0598C20.1185 26.4613 19.5917 27.0177 18.9467 27.9627C17.5688 29.9815 17.4386 32.711 17.4386 34.133C17.4386 35.2726 17.3846 36.3559 17.3576 36.7558C17.3569 36.7662 17.3537 36.7763 17.3483 36.7852C17.1118 37.1722 16.7406 37.8064 16.3965 38.45C16.0515 39.0952 15.7366 39.7447 15.6093 40.1645C15.4988 40.5293 15.3222 41.03 15.1272 41.5832C15.0362 41.8413 14.9411 42.1108 14.8469 42.3833C14.5498 43.2423 14.2602 44.1316 14.1238 44.7976C13.9094 45.8443 13.6825 46.2433 13.2633 46.9804C13.1404 47.1965 13.001 47.4417 12.8405 47.7408C12.7819 47.85 12.7224 47.9598 12.6621 48.0711C11.9911 49.3093 11.2163 50.739 10.3728 53.7727C9.91294 55.4267 9.59008 57.0488 9.31533 58.4751C9.29142 58.5993 9.26787 58.7219 9.24462 58.843C9.00107 60.1116 8.79053 61.2082 8.54586 62.0015C8.27864 62.868 7.82154 64.1664 7.41329 65.2719C7.20912 65.8248 7.01699 66.3299 6.86673 66.7091C6.79162 66.8986 6.72682 67.0571 6.67612 67.1745C6.65079 67.2331 6.62878 67.282 6.61062 67.3196C6.59334 67.3554 6.57728 67.3858 6.56387 67.4037C6.53975 67.4358 6.50438 67.4659 6.46489 67.4937C6.42469 67.522 6.37674 67.5502 6.32441 67.5779C6.21973 67.6332 6.09359 67.6882 5.96834 67.7381C5.71771 67.838 5.46533 67.9194 5.38313 67.9441C5.25789 67.9816 4.89529 68.1297 4.72685 68.2004L4.72671 68.2004C4.14946 68.4409 3.58799 68.778 3.36554 68.9369C3.26839 69.0062 3.18031 69.0946 3.0871 69.1882C3.07696 69.1984 3.06676 69.2086 3.05647 69.2189C2.95364 69.3217 2.84354 69.4281 2.71469 69.5054C2.62825 69.5573 2.51109 69.6195 2.38741 69.6851C2.33524 69.7128 2.28191 69.7411 2.22923 69.7695C2.04878 69.8669 1.87584 69.9654 1.76773 70.0504C1.54372 70.2264 1.25757 70.4972 1.11681 70.6848C1.05372 70.769 1.03104 70.8316 1.00834 70.8943L1.00462 70.9045C0.979128 70.9747 0.950916 71.0456 0.868354 71.1282C0.797909 71.1986 0.699463 71.2755 0.598501 71.3543L0.573538 71.3738C0.462103 71.461 0.347938 71.5516 0.254146 71.6454C0.173929 71.7256 0.112776 71.8985 0.133253 72.0772C0.153114 72.2506 0.248989 72.422 0.474219 72.5092C0.710483 72.6007 0.996698 72.6095 1.27359 72.5585C1.55036 72.5074 1.81141 72.3977 1.9961 72.2592C2.1843 72.118 2.29777 71.989 2.39111 71.8758C2.40258 71.8619 2.41386 71.848 2.42503 71.8343C2.50346 71.7382 2.57686 71.6482 2.67695 71.5789C2.78735 71.5024 2.96586 71.4114 3.14422 71.3397C3.32038 71.2688 3.50835 71.2118 3.63507 71.2118C3.65704 71.2118 3.6775 71.2229 3.6894 71.2414C3.70131 71.2599 3.70302 71.2831 3.69396 71.3031C3.53773 71.6479 3.18095 72.4615 3.00089 72.9631C2.80176 73.5178 2.4883 74.7817 2.31768 75.4697C2.29563 75.5585 2.27597 75.6378 2.25925 75.7047C2.11381 76.2865 1.85559 77.3679 1.72665 78.0448C1.59691 78.726 1.43649 79.6256 1.4206 79.9432C1.41849 79.9855 1.41354 80.0383 1.40789 80.0985C1.39056 80.2832 1.36666 80.5381 1.39791 80.7761C1.41842 80.9324 1.46205 81.0719 1.54109 81.1731C1.61792 81.2714 1.73218 81.3389 1.90828 81.3463C2.26001 81.3609 2.49238 81.1284 2.64535 80.8578C2.78638 80.6083 2.85076 80.3413 2.87276 80.2501C2.87456 80.2427 2.87607 80.2364 2.87732 80.2314C2.8872 80.1919 2.91112 80.0592 2.94181 79.8869L2.95022 79.8397C2.97875 79.6794 3.01165 79.4946 3.04289 79.3299C3.07865 79.1415 3.11331 78.9733 3.13732 78.9013C3.15615 78.8448 3.20209 78.6906 3.26508 78.4792C3.35974 78.1614 3.49289 77.7145 3.63034 77.2759C3.71535 77.0047 3.80175 76.7375 3.88107 76.5084C4.02653 76.0882 4.12777 75.8006 4.20078 75.6039C4.27324 75.4087 4.31939 75.2986 4.35477 75.2367C4.37809 75.1959 4.41374 75.1661 4.46037 75.1624C4.50335 75.159 4.53912 75.1794 4.56259 75.1999C4.5867 75.221 4.606 75.2491 4.61685 75.2777C4.62637 75.3029 4.63584 75.347 4.61017 75.3855C4.59723 75.4049 4.54651 75.4977 4.48828 75.6302C4.43058 75.7615 4.36752 75.9273 4.32833 76.0919C4.30023 76.21 4.22383 76.4922 4.13145 76.8334C4.09006 76.9863 4.04547 77.151 4.00057 77.3181C3.85488 77.8604 3.70604 78.4278 3.64997 78.7081C3.59396 78.9882 3.56995 79.1921 3.5478 79.3935L3.5431 79.4364C3.52257 79.624 3.50171 79.8145 3.45623 80.0647C3.42944 80.2121 3.39101 80.3854 3.34989 80.5709C3.31675 80.7203 3.28187 80.8777 3.2499 81.0358C3.17734 81.3945 3.11784 81.7651 3.11784 82.0897C3.11784 82.4187 3.15434 82.6813 3.24068 82.8596C3.28332 82.9477 3.33705 83.0129 3.4026 83.0564C3.46782 83.0997 3.54893 83.1242 3.65123 83.1242C4.06883 83.1242 4.26193 82.8424 4.32245 82.7365C4.38389 82.629 4.57555 82.1824 4.65497 81.8329C4.69396 81.6614 4.74836 81.3672 4.8017 81.0787L4.80597 81.0556C4.86029 80.7619 4.91328 80.4764 4.94623 80.3446C4.96026 80.2885 4.99637 80.1333 5.0462 79.9193C5.11095 79.6411 5.19886 79.2635 5.29155 78.8744C5.45482 78.1891 5.63346 77.4659 5.72365 77.2035C5.76796 77.0747 5.81027 76.9467 5.85018 76.8257L5.85843 76.8007C5.89522 76.6892 5.92994 76.5839 5.96206 76.4903C5.9965 76.39 6.02837 76.302 6.057 76.2336C6.07131 76.1994 6.08522 76.1691 6.09865 76.1441C6.11149 76.1202 6.12619 76.0967 6.14316 76.0797C6.20844 76.0144 6.30119 76.0184 6.36326 76.0494C6.3952 76.0654 6.42546 76.0913 6.44262 76.127C6.4608 76.1648 6.46183 76.209 6.44067 76.2513L6.44057 76.2515C6.44043 76.2518 6.44014 76.2525 6.43968 76.2536C6.43902 76.2551 6.43819 76.2571 6.43717 76.2597C6.43513 76.2649 6.43258 76.2718 6.42952 76.2803C6.42341 76.2974 6.41566 76.3203 6.40642 76.3484C6.38795 76.4047 6.3639 76.481 6.33581 76.5727C6.27964 76.7561 6.20753 77.0001 6.13187 77.2665C5.98036 77.7998 5.81532 78.4199 5.73505 78.8212C5.66196 79.1867 5.61877 79.4823 5.57962 79.7503C5.57569 79.7772 5.5718 79.8038 5.56792 79.8302C5.52547 80.1193 5.48466 80.3808 5.411 80.6673C5.40143 80.7045 5.39035 80.7463 5.37824 80.7919C5.29718 81.0977 5.17017 81.5766 5.14421 82.0128C5.12927 82.2637 5.14855 82.4919 5.22343 82.6617C5.29616 82.8266 5.42127 82.9377 5.63091 82.963C5.83702 82.9879 6.01355 82.8939 6.16864 82.7178C6.32469 82.5405 6.4527 82.2864 6.55671 82.0104C6.7212 81.5738 6.82009 81.0994 6.87901 80.8166C6.89468 80.7415 6.90752 80.6798 6.91802 80.6361C6.96507 80.4401 7.06818 80.0911 7.16908 79.7497L7.18154 79.7075C7.28708 79.3503 7.38704 79.0102 7.41868 78.8599C7.48327 78.5531 7.71029 77.5795 7.84113 77.2033C7.86316 77.14 7.88722 77.0656 7.91277 76.9867C7.96 76.8408 8.01232 76.6792 8.06632 76.5422C8.10811 76.4362 8.15327 76.3384 8.20148 76.2693C8.22549 76.2349 8.25303 76.2035 8.28483 76.1824C8.31801 76.1604 8.35932 76.1478 8.40411 76.1601C8.46101 76.1756 8.48417 76.2258 8.49288 76.2662C8.5018 76.3075 8.50074 76.3578 8.49506 76.41C8.48357 76.5156 8.45041 76.6509 8.41082 76.7879C8.371 76.9257 8.32364 77.0688 8.28243 77.1909C8.27392 77.2162 8.2657 77.2404 8.25789 77.2634C8.22745 77.3532 8.20307 77.4251 8.19065 77.4686C8.15941 77.5779 8.11965 77.7922 8.07893 78.0141L8.07434 78.0391C8.0357 78.2498 7.99657 78.4631 7.96467 78.5828C7.95434 78.6215 7.93857 78.6781 7.91911 78.7479C7.87099 78.9204 7.80034 79.1738 7.73363 79.4386C7.65522 79.7498 7.584 80.0703 7.56245 80.2859C7.53812 80.5291 7.53224 80.7453 7.593 80.9073C7.62263 80.9863 7.66774 81.0512 7.73425 81.1002C7.80117 81.1496 7.89379 81.186 8.0229 81.2012C8.12977 81.2138 8.23484 81.158 8.33923 81.0416C8.44306 80.9259 8.5363 80.7607 8.61712 80.5821C8.69756 80.4043 8.76391 80.2174 8.81538 80.061C8.83725 79.9945 8.85684 79.9322 8.87372 79.8785C8.89566 79.8087 8.91301 79.7535 8.9248 79.7228C8.96438 79.6199 9.12533 79.1332 9.28322 78.6413C9.44152 78.1482 9.59358 77.6595 9.61695 77.5504C9.6424 77.4317 9.74943 77.1197 9.87016 76.7978C9.99141 76.4745 10.1298 76.1322 10.2204 75.9511C10.3056 75.7806 10.4327 75.3894 10.5576 74.9286C10.6831 74.4659 10.8046 73.9399 10.8772 73.5123C10.9138 73.2967 10.9605 73.0742 11.008 72.8506L11.0163 72.8115C11.0611 72.6003 11.1061 72.3883 11.144 72.1782C11.2245 71.7313 11.2714 71.2992 11.2163 70.9138C11.2109 70.8757 11.2055 70.8386 11.2003 70.8024C11.0976 70.089 11.0471 69.7381 11.2853 69.1665C11.3755 68.9501 11.4711 68.7042 11.5673 68.4566C11.7271 68.0457 11.8886 67.6302 12.0303 67.3368C12.0404 67.3158 12.0517 67.2922 12.0642 67.266C12.3333 66.7038 13.1777 64.9393 15.5283 61.8464C17.9803 58.6201 19.5271 54.9923 19.9451 52.8379C20.2812 51.1057 20.5591 49.5308 20.656 48.9601C20.6573 48.9524 20.6601 48.9449 20.6641 48.9381C22.1264 46.4574 23.2407 44.3801 23.8928 42.0678C23.9005 42.0404 23.9253 42.0213 23.9538 42.0207C23.9823 42.0202 24.0077 42.0383 24.0165 42.0654C24.1867 42.5895 24.4659 43.3155 24.7518 44.059C24.8043 44.1953 24.8569 44.3322 24.9092 44.4686C25.2454 45.3461 25.5657 46.2029 25.6961 46.7247C25.8253 47.2416 25.9054 47.5133 25.9849 47.7238C26.0445 47.8819 26.1037 48.0054 26.1846 48.1741C26.2116 48.2306 26.2411 48.292 26.2738 48.3616L26.2981 48.4131C26.5479 48.9436 26.7977 49.4738 26.8615 50.1285C26.8749 50.2651 26.898 50.4385 26.9265 50.643C26.9338 50.6959 26.9415 50.7508 26.9495 50.8076C27.0585 51.5837 27.2174 52.7156 27.2174 53.9008C27.2174 54.6993 27.0698 55.4413 26.9261 56.164L26.9212 56.1884C26.7755 56.9208 26.6357 57.6332 26.6517 58.3767C26.6621 58.8603 26.6758 59.2551 26.6897 59.5876C26.6992 59.8161 26.7088 60.0156 26.7175 60.1945C26.7352 60.5623 26.7487 60.8431 26.7487 61.1097C26.7487 61.2653 26.7057 61.4509 26.6405 61.671C26.6019 61.8011 26.5544 61.9467 26.5017 62.1082C26.4652 62.2201 26.4262 62.3395 26.3861 62.4667C26.1887 63.0908 25.9555 63.9193 25.8107 65.0296C25.6994 65.8829 25.5904 66.512 25.4929 67.04C25.4699 67.1644 25.4476 67.283 25.4261 67.3975C25.3561 67.7697 25.2942 68.0986 25.2442 68.441C25.2038 68.7175 25.1711 69.0025 25.1484 69.3252C25.1482 69.3271 25.148 69.3291 25.1477 69.331C24.7764 71.6267 24.0284 76.914 24.0026 79.7143C23.9796 82.2066 24.1198 85.0463 24.2145 86.9646C24.2531 87.7455 24.2841 88.3738 24.2935 88.7636C24.3258 90.1019 24.5032 91.9552 24.954 93.6297C24.9968 93.7888 25.043 93.9501 25.0916 94.113C25.2073 94.5009 25.3364 94.8969 25.4657 95.291L25.4965 95.3848C25.6154 95.747 25.7335 96.1069 25.8401 96.4555C26.0712 97.2114 26.2506 97.921 26.2654 98.4939C26.2808 99.0847 26.1916 99.4618 26.0908 99.8881C26.0839 99.9175 26.0768 99.9472 26.0698 99.9772C25.9614 100.439 25.8451 100.984 25.829 101.939C25.7968 103.86 25.9098 105.83 25.9421 106.347C25.9445 106.385 25.9407 106.444 25.9331 106.517C25.9253 106.591 25.913 106.684 25.897 106.793C25.8651 107.013 25.8179 107.3 25.7612 107.638C25.7402 107.764 25.7178 107.896 25.6943 108.035C25.5915 108.644 25.4687 109.373 25.3495 110.147C25.0563 112.052 24.787 114.226 24.8914 115.591C25.0719 117.952 25.7303 122.093 26.1477 124.719C26.2157 125.146 26.2773 125.533 26.3293 125.866C26.384 126.216 26.4475 126.606 26.5155 127.023C26.6783 128.024 26.8671 129.184 27.0225 130.325C27.2427 131.941 27.3973 133.527 27.3159 134.577C27.235 135.62 27.1784 136.175 27.142 136.527L27.1392 136.553C27.1048 136.886 27.0898 137.031 27.0898 137.255C27.0898 137.468 27.1379 137.733 27.1909 138.026L27.2019 138.086C27.2584 138.399 27.3161 138.736 27.3161 139.049C27.3161 139.281 27.3276 139.489 27.3377 139.669C27.3408 139.726 27.3439 139.781 27.3463 139.832C27.3514 139.939 27.3541 140.034 27.3501 140.114C27.3462 140.193 27.3357 140.265 27.3103 140.321C27.2757 140.397 27.2215 140.474 27.1638 140.555C27.1489 140.577 27.1338 140.598 27.1187 140.62C27.0432 140.729 26.9613 140.858 26.891 141.03C26.8352 141.166 26.8121 141.291 26.789 141.416C26.7833 141.447 26.7776 141.478 26.7713 141.509C26.7403 141.664 26.6973 141.818 26.574 141.968C26.5096 142.046 26.3979 142.133 26.2668 142.231C26.2363 142.254 26.2046 142.278 26.1717 142.302C25.7899 142.585 25.2555 142.981 24.8985 143.576C24.637 144.012 24.5143 144.448 24.4688 144.812C24.4231 145.177 24.4557 145.466 24.5007 145.608C24.5237 145.681 24.5457 145.726 24.5645 145.755C24.5827 145.783 24.5989 145.798 24.6137 145.811C24.6262 145.821 24.6534 145.84 24.6711 145.869C24.6909 145.9 24.6976 145.937 24.6976 145.984C24.6976 146.05 24.7291 146.163 24.7921 146.259C24.8551 146.356 24.9389 146.42 25.037 146.42C25.1631 146.42 25.2576 146.408 25.3203 146.39C25.3518 146.381 25.3725 146.371 25.3847 146.363C25.3916 146.358 25.3942 146.355 25.395 146.354C25.4033 146.324 25.4314 146.305 25.4623 146.307C25.4937 146.309 25.5188 146.334 25.5217 146.366C25.5321 146.479 25.5546 146.581 25.5927 146.655C25.6299 146.727 25.6782 146.767 25.7412 146.776C25.9055 146.8 26.053 146.795 26.1643 146.762C26.2752 146.729 26.3416 146.672 26.3653 146.595C26.3741 146.566 26.4015 146.547 26.4314 146.549C26.4614 146.551 26.486 146.574 26.4909 146.603C26.5094 146.715 26.5505 146.814 26.622 146.884C26.6922 146.953 26.7982 147.002 26.9605 147.002C27.118 147.002 27.2249 146.951 27.2987 146.879C27.374 146.805 27.4197 146.705 27.444 146.599C27.4517 146.566 27.4837 146.545 27.5172 146.55C27.5508 146.555 27.5745 146.586 27.5714 146.62C27.5593 146.753 27.5817 146.952 27.6845 147.115C27.7845 147.274 27.9646 147.406 28.2859 147.406C28.4899 147.406 28.629 147.359 28.7255 147.293C28.822 147.227 28.8812 147.138 28.9191 147.046C28.9572 146.953 28.9731 146.858 28.9832 146.78C28.9847 146.769 28.9861 146.758 28.9875 146.747C28.9906 146.722 28.9935 146.698 28.9967 146.68C28.9991 146.666 29.0022 146.652 29.0071 146.638C29.0108 146.629 29.0213 146.602 29.049 146.588C29.0944 146.566 29.1587 146.557 29.2112 146.557C29.2387 146.557 29.2665 146.56 29.2912 146.565C29.3127 146.569 29.3439 146.578 29.3661 146.601C29.3817 146.616 29.3864 146.635 29.3881 146.643C29.3903 146.653 29.3913 146.663 29.3918 146.673C29.3928 146.691 29.3924 146.714 29.3918 146.738C29.3905 146.788 29.3881 146.849 29.391 146.916C29.3969 147.053 29.4248 147.193 29.5115 147.279C29.6113 147.379 29.7328 147.47 29.9079 147.533C30.0838 147.596 30.3174 147.632 30.6426 147.616C31.4462 147.577 31.9264 147.107 32.2145 146.619C32.4612 146.202 32.5628 145.78 32.6039 145.61C32.6111 145.58 32.6165 145.558 32.6204 145.545C32.6271 145.522 32.6384 145.493 32.6521 145.458C32.7443 145.218 32.9451 144.697 32.5937 144.076C32.5378 143.977 32.4866 143.889 32.4403 143.81C32.3627 143.676 32.2994 143.568 32.2527 143.473C32.2148 143.397 32.186 143.327 32.1681 143.257C32.1216 143.076 32.1524 142.911 32.2504 142.663C32.3039 142.527 32.3674 142.392 32.4317 142.256L32.4484 142.221C32.5076 142.097 32.5669 141.973 32.6207 141.845C32.7384 141.566 32.8278 141.276 32.8278 140.957C32.8278 140.633 32.7845 140.448 32.7432 140.297C32.739 140.282 32.7349 140.267 32.7308 140.252C32.6932 140.117 32.6585 139.992 32.6662 139.806C32.67 139.716 32.6797 139.568 32.6918 139.382C32.7325 138.759 32.8004 137.718 32.7632 137.049C32.7515 136.838 32.6935 136.574 32.6115 136.263C32.5706 136.108 32.5241 135.942 32.4749 135.767C32.4258 135.592 32.374 135.408 32.3228 135.215C32.1183 134.446 31.9225 133.546 31.9388 132.599C31.9712 130.719 32.5053 126.365 33.4613 123.416C34.4112 120.486 34.3632 118.006 34.1857 115.812C34.1209 115.011 33.942 114.131 33.7592 113.232C33.6923 112.903 33.6249 112.571 33.5623 112.24C33.33 111.01 33.1659 109.787 33.3623 108.747C33.5572 107.716 33.8414 106.876 34.0961 106.138L34.1254 106.053C34.3684 105.35 34.5781 104.743 34.6548 104.145C34.735 103.518 34.7553 102.5 34.7735 101.573L34.7736 101.568C34.7826 101.107 34.7912 100.67 34.8066 100.318C34.8143 100.141 34.8238 99.9842 34.836 99.8564C34.848 99.73 34.8631 99.6272 34.8833 99.5599C34.9226 99.4289 34.9865 99.111 35.0601 98.6944C35.2494 97.6221 35.497 95.9287 35.5434 95.2102C35.5656 94.866 35.6919 94.1903 35.8604 93.3906C36.0291 92.5893 36.2413 91.6581 36.437 90.7993L36.4372 90.7982L36.4765 90.6258C36.649 89.8685 36.805 89.1804 36.9023 88.7038C36.9311 88.5628 36.9633 88.4081 36.9981 88.2411C37.3546 86.5296 37.9824 83.5161 37.9677 80.4899V78.7968C37.9677 78.7783 37.9757 78.7606 37.9896 78.7484C38.0035 78.7361 38.022 78.7304 38.0404 78.7327C38.1844 78.7506 38.3378 78.7601 38.5011 78.7601C38.6645 78.7601 38.8179 78.7506 38.9619 78.7327C38.9803 78.7304 38.9988 78.7361 39.0127 78.7484C39.0266 78.7606 39.0345 78.7783 39.0345 78.7968V80.4899C39.0198 83.5161 39.6477 86.5296 40.0042 88.2411C40.039 88.4081 40.0712 88.5628 40.1 88.7038C40.1973 89.1804 40.3533 89.8685 40.5258 90.6258L40.5651 90.7982L40.5653 90.7993C40.761 91.6581 40.9732 92.5893 41.1419 93.3906C41.3103 94.1903 41.4367 94.866 41.4589 95.2102C41.5053 95.9287 41.7528 97.6221 41.9422 98.6944C42.0158 99.111 42.0797 99.4289 42.119 99.5599C42.1392 99.6272 42.1543 99.73 42.1663 99.8564C42.1785 99.9842 42.1879 100.141 42.1957 100.318C42.2111 100.67 42.2196 101.107 42.2287 101.568L42.2288 101.573C42.247 102.5 42.2672 103.518 42.3475 104.145C42.4242 104.743 42.6339 105.35 42.8769 106.053L42.9062 106.138C43.1608 106.876 43.4451 107.716 43.64 108.747C43.8364 109.787 43.6723 111.01 43.4399 112.24C43.3774 112.571 43.31 112.903 43.2431 113.232C43.0603 114.131 42.8814 115.011 42.8166 115.812C42.639 118.006 42.5911 120.486 43.541 123.416C44.4969 126.365 45.031 130.719 45.0635 132.599C45.0798 133.546 44.884 134.446 44.6794 135.215C44.6283 135.408 44.5765 135.592 44.5274 135.767L44.5242 135.779C44.4762 135.95 44.4308 136.111 44.3908 136.263C44.3088 136.574 44.2508 136.838 44.239 137.049C44.2019 137.718 44.2698 138.759 44.3105 139.382C44.3226 139.568 44.3323 139.716 44.3361 139.806C44.3438 139.992 44.3091 140.117 44.2715 140.252C44.2674 140.267 44.2632 140.282 44.2591 140.297C44.2177 140.448 44.1745 140.633 44.1745 140.957C44.1745 141.276 44.2639 141.566 44.3816 141.845C44.4354 141.973 44.4947 142.097 44.5538 142.221L44.5705 142.256C44.6349 142.392 44.6984 142.527 44.7519 142.663C44.8498 142.911 44.8806 143.076 44.8342 143.257C44.8163 143.327 44.7875 143.397 44.7496 143.473C44.7029 143.568 44.6396 143.676 44.5619 143.81C44.5157 143.889 44.4644 143.977 44.4086 144.076C44.0572 144.697 44.258 145.218 44.3502 145.458C44.3639 145.493 44.3751 145.522 44.3819 145.545C44.3858 145.558 44.3912 145.58 44.3983 145.61C44.4395 145.78 44.5411 146.202 44.7878 146.619C45.0759 147.107 45.5561 147.577 46.3597 147.616C46.6849 147.632 46.9185 147.596 47.0944 147.533C47.2695 147.47 47.391 147.379 47.4908 147.279C47.5774 147.193 47.6053 147.053 47.6113 146.916C47.6138 146.858 47.6123 146.804 47.611 146.758L47.6105 146.738C47.6099 146.714 47.6095 146.691 47.6105 146.673C47.611 146.663 47.6119 146.653 47.6142 146.643C47.6158 146.635 47.6205 146.616 47.6362 146.601C47.6584 146.578 47.6896 146.569 47.711 146.565C47.7357 146.56 47.7636 146.557 47.791 146.557C47.8436 146.557 47.9079 146.566 47.9533 146.588C47.981 146.602 47.9915 146.629 47.9951 146.638C48.0001 146.652 48.0032 146.666 48.0055 146.68C48.0102 146.706 48.0142 146.743 48.019 146.78C48.0292 146.858 48.0451 146.953 48.0832 147.046C48.1211 147.138 48.1803 147.227 48.2768 147.293C48.3733 147.359 48.5124 147.406 48.7164 147.406C49.0377 147.406 49.2178 147.274 49.3178 147.115C49.4206 146.952 49.4429 146.753 49.4309 146.62C49.4278 146.586 49.4515 146.555 49.485 146.55C49.5186 146.545 49.5506 146.566 49.5583 146.599C49.5826 146.705 49.6282 146.805 49.7035 146.879C49.7774 146.951 49.8843 147.002 50.0418 147.002C50.2013 147.002 50.307 146.953 50.3778 146.883C50.45 146.812 50.4921 146.713 50.5115 146.603C50.5167 146.573 50.5414 146.551 50.5712 146.549C50.601 146.548 50.6282 146.566 50.637 146.595C50.6607 146.672 50.7271 146.729 50.838 146.762C50.9493 146.795 51.0968 146.8 51.2611 146.776C51.3211 146.768 51.3693 146.727 51.4074 146.653C51.4459 146.578 51.4694 146.476 51.4807 146.365C51.4838 146.334 51.509 146.309 51.5403 146.307C51.5711 146.305 51.599 146.325 51.6073 146.354C51.6081 146.355 51.6107 146.358 51.6176 146.363C51.6298 146.371 51.6505 146.381 51.682 146.39C51.7447 146.408 51.8391 146.42 51.9652 146.42C52.0634 146.42 52.1472 146.356 52.2101 146.259C52.2732 146.163 52.3047 146.05 52.3047 145.984C52.3047 145.937 52.3114 145.9 52.3312 145.869C52.3463 145.845 52.3684 145.827 52.3822 145.816C52.3846 145.814 52.3867 145.812 52.3885 145.811C52.4034 145.798 52.4196 145.783 52.4378 145.755C52.4565 145.726 52.4786 145.681 52.5016 145.608C52.5465 145.466 52.5792 145.177 52.5335 144.812C52.488 144.448 52.3652 144.012 52.1038 143.576C51.7468 142.981 51.2124 142.585 50.8306 142.302C50.7977 142.278 50.7659 142.254 50.7355 142.231C50.6044 142.133 50.4927 142.046 50.4283 141.968C50.305 141.818 50.262 141.664 50.2309 141.509C50.2247 141.478 50.219 141.447 50.2133 141.416C50.1902 141.291 50.1671 141.166 50.1113 141.03C50.041 140.858 49.959 140.729 49.8835 140.62C49.8685 140.598 49.8534 140.577 49.8385 140.555C49.7808 140.474 49.7266 140.397 49.692 140.321C49.6666 140.265 49.6561 140.193 49.6522 140.114C49.6482 140.034 49.6509 139.939 49.656 139.832C49.6584 139.781 49.6614 139.726 49.6646 139.669C49.6747 139.489 49.6862 139.281 49.6862 139.049C49.6862 138.736 49.7439 138.399 49.8004 138.086L49.8114 138.025C49.8643 137.733 49.9125 137.468 49.9125 137.255C49.9125 137.031 49.8975 136.886 49.8631 136.553L49.8603 136.527C49.8239 136.175 49.7673 135.62 49.6864 134.577C49.605 133.527 49.7596 131.941 49.9797 130.325C50.1352 129.184 50.3239 128.024 50.4868 127.024C50.5548 126.606 50.6183 126.216 50.6729 125.866C50.725 125.533 50.7866 125.146 50.8546 124.719C51.272 122.093 51.9304 117.952 52.1109 115.591C52.2153 114.226 51.946 112.052 51.6528 110.147C51.5337 109.373 51.4108 108.645 51.3081 108.036C51.2846 107.897 51.2621 107.764 51.241 107.638C51.1844 107.3 51.1372 107.013 51.1052 106.793C51.0893 106.684 51.077 106.591 51.0692 106.517C51.0616 106.444 51.0578 106.385 51.0602 106.347C51.0925 105.83 51.2055 103.86 51.1732 101.939C51.1572 100.984 51.0409 100.439 50.9325 99.9772C50.9254 99.9472 50.9184 99.9175 50.9115 99.8881C50.8107 99.4618 50.7215 99.0847 50.7368 98.4939C50.7517 97.921 50.931 97.2114 51.1622 96.4555C51.2688 96.107 51.3869 95.7471 51.5057 95.385L51.5366 95.291C51.6659 94.8969 51.795 94.5009 51.9107 94.113C51.9593 93.9501 52.0055 93.7888 52.0483 93.6297C52.4991 91.9552 52.6765 90.1019 52.7088 88.7636C52.7182 88.3738 52.7492 87.7456 52.7877 86.9646C52.8825 85.0464 53.0227 82.2066 52.9997 79.7143C52.9739 76.914 52.2259 71.6267 51.8546 69.331C51.8543 69.3291 51.8541 69.3271 51.8539 69.3252C51.8311 69.0025 51.7985 68.7175 51.7581 68.441C51.7081 68.0986 51.6462 67.7697 51.5762 67.3975C51.5547 67.283 51.5324 67.1644 51.5094 67.04C51.4119 66.512 51.3029 65.8829 51.1916 65.0296C51.0468 63.9193 50.8135 63.0908 50.6162 62.4667C50.576 62.3395 50.5371 62.22 50.5006 62.1081C50.4479 61.9467 50.4004 61.8011 50.3618 61.671C50.2965 61.4509 50.2536 61.2653 50.2536 61.1097C50.2536 60.8431 50.2671 60.5623 50.2848 60.1945C50.2934 60.0156 50.303 59.8161 50.3126 59.5876C50.3264 59.2551 50.3402 58.8603 50.3506 58.3767C50.3666 57.6332 50.2267 56.9208 50.0811 56.1884L50.0762 56.164C49.9324 55.4413 49.7848 54.6993 49.7848 53.9008C49.7848 52.7156 49.9438 51.5838 50.0528 50.8076C50.0607 50.7508 50.0685 50.6959 50.0758 50.643C50.1043 50.4385 50.1274 50.2651 50.1407 50.1285C50.2046 49.4738 50.4543 48.9436 50.7042 48.4131L50.706 48.4093L50.7285 48.3616C50.7612 48.292 50.7907 48.2305 50.8177 48.1741C50.8986 48.0054 50.9578 47.8819 51.0174 47.7238C51.0969 47.5133 51.1769 47.2416 51.3061 46.7247C51.4366 46.2029 51.7569 45.3461 52.0931 44.4686C52.1454 44.3322 52.198 44.1953 52.2505 44.0589C52.5364 43.3154 52.8156 42.5895 52.9857 42.0654C52.9945 42.0383 53.02 42.0202 53.0485 42.0207C53.077 42.0213 53.1017 42.0404 53.1095 42.0678C53.7616 44.3801 54.8759 46.4574 56.3382 48.9381C56.3406 48.9421 56.3425 48.9463 56.3439 48.9506C56.3449 48.9537 56.3457 48.9569 56.3463 48.9601C56.4432 49.5308 56.7211 51.1057 57.0572 52.8379C57.4752 54.9923 59.022 58.6201 61.474 61.8464C63.8246 64.9393 64.669 66.7038 64.938 67.266C64.9506 67.2922 64.9619 67.3158 64.972 67.3368C65.1136 67.6302 65.2752 68.0458 65.4349 68.4566C65.5312 68.7042 65.6268 68.9501 65.717 69.1665C65.9551 69.7381 65.9046 70.089 65.8019 70.8024C65.7967 70.8386 65.7914 70.8757 65.7859 70.9138C65.7309 71.2992 65.7778 71.7313 65.8583 72.1782C65.8962 72.3883 65.9412 72.6002 65.986 72.8113L65.9943 72.8506C66.0417 73.0742 66.0885 73.2967 66.1251 73.5123C66.1977 73.9399 66.3192 74.4659 66.4446 74.9286C66.5696 75.3894 66.6967 75.7806 66.7819 75.9511C66.8725 76.1322 67.0109 76.4745 67.1321 76.7978C67.2529 77.1197 67.3599 77.4317 67.3853 77.5504C67.4087 77.6595 67.5608 78.1482 67.7191 78.6413C67.877 79.1332 68.0379 79.6199 68.0775 79.7228C68.0893 79.7535 68.1066 79.8086 68.1285 79.8784C68.1454 79.9321 68.165 79.9945 68.1869 80.061C68.2384 80.2174 68.3047 80.4043 68.3852 80.5821C68.466 80.7607 68.5592 80.9259 68.6631 81.0416C68.7674 81.158 68.8725 81.2138 68.9794 81.2012C69.1085 81.186 69.2011 81.1496 69.268 81.1002C69.3345 81.0512 69.3797 80.9863 69.4093 80.9073C69.47 80.7453 69.4642 80.5291 69.4398 80.2859C69.4183 80.0703 69.3471 79.7498 69.2687 79.4386C69.202 79.1738 69.1313 78.9204 69.0832 78.7478C69.0637 78.6781 69.048 78.6215 69.0376 78.5828C69.0057 78.463 68.9665 78.2494 68.9278 78.0385L68.9234 78.0141C68.8826 77.7922 68.8429 77.5779 68.8116 77.4686C68.7992 77.4252 68.7749 77.3534 68.7445 77.2637C68.7366 77.2406 68.7284 77.2162 68.7199 77.1909C68.6786 77.0688 68.6313 76.9257 68.5915 76.7879C68.5519 76.6509 68.5187 76.5156 68.5072 76.41C68.5015 76.3578 68.5005 76.3075 68.5094 76.2662C68.5181 76.2258 68.5413 76.1756 68.5982 76.1601C68.643 76.1478 68.6843 76.1604 68.7175 76.1824C68.7493 76.2035 68.7768 76.2349 68.8008 76.2693C68.849 76.3384 68.8942 76.4362 68.936 76.5422C68.99 76.6792 69.0423 76.8409 69.0895 76.9868C69.1151 77.0657 69.1391 77.14 69.1611 77.2033C69.292 77.5795 69.519 78.5531 69.5836 78.8599C69.6152 79.0102 69.7152 79.3503 69.8207 79.7075L69.8332 79.7497C69.9341 80.0911 70.0372 80.4401 70.0843 80.6361C70.0948 80.6798 70.1076 80.7414 70.1233 80.8166C70.1822 81.0993 70.2811 81.5738 70.4456 82.0104C70.5496 82.2864 70.6776 82.5405 70.8336 82.7178C70.9887 82.8939 71.1653 82.9879 71.3714 82.963C71.581 82.9377 71.7061 82.8266 71.7789 82.6617C71.8537 82.4919 71.873 82.2637 71.8581 82.0128C71.8321 81.5766 71.7051 81.0976 71.624 80.7919C71.6119 80.7463 71.6008 80.7045 71.5913 80.6673C71.5176 80.3808 71.4768 80.1193 71.4344 79.8302C71.4305 79.8038 71.4266 79.7771 71.4227 79.7502C71.3835 79.4822 71.3403 79.1867 71.2672 78.8212C71.187 78.4199 71.0219 77.7998 70.8704 77.2665C70.7948 77.0001 70.7227 76.7561 70.6665 76.5727C70.6384 76.481 70.6143 76.4047 70.5959 76.3484C70.5866 76.3203 70.5789 76.2974 70.5728 76.2803C70.5697 76.2718 70.5672 76.2649 70.5651 76.2597C70.5641 76.2571 70.5633 76.2551 70.5626 76.2536C70.5619 76.252 70.5616 76.2513 70.5616 76.2513C70.5405 76.209 70.5415 76.1648 70.5597 76.127C70.5768 76.0913 70.6071 76.0654 70.639 76.0494C70.7011 76.0184 70.7938 76.0144 70.8591 76.0797C70.8761 76.0967 70.8908 76.1202 70.9036 76.1441C70.9105 76.1569 70.9175 76.1711 70.9246 76.1865C70.9314 76.2012 70.9383 76.2169 70.9453 76.2336C70.9739 76.302 71.0058 76.39 71.0402 76.4903C71.0614 76.5519 71.0837 76.6186 71.1069 76.6888C71.1216 76.7332 71.1367 76.779 71.1521 76.8257C71.192 76.9467 71.2343 77.0747 71.2786 77.2035C71.3688 77.4659 71.5475 78.1891 71.7107 78.8744C71.8035 79.2637 71.8915 79.6416 71.9562 79.9198C72.006 80.1336 72.042 80.2885 72.0561 80.3446C72.089 80.4764 72.142 80.7619 72.1963 81.0556C72.251 81.3514 72.3073 81.6568 72.3473 81.8329C72.4267 82.1824 72.6184 82.629 72.6798 82.7365C72.7404 82.8424 72.9335 83.1242 73.3511 83.1242C73.4534 83.1242 73.5345 83.0997 73.5997 83.0564C73.6652 83.0129 73.719 82.9477 73.7616 82.8596C73.8479 82.6813 73.8844 82.4187 73.8844 82.0897C73.8844 81.7651 73.8249 81.3945 73.7524 81.0358C73.7204 80.8777 73.6855 80.7204 73.6524 80.5709C73.6113 80.3854 73.5729 80.2121 73.5461 80.0647C73.5006 79.8145 73.4797 79.6239 73.4592 79.4364L73.4545 79.3935C73.4323 79.1921 73.4083 78.9882 73.3523 78.7081C73.2963 78.4278 73.1474 77.8604 73.0017 77.3181C72.9569 77.1512 72.9123 76.9867 72.871 76.834C72.7785 76.4925 72.7021 76.21 72.674 76.0919C72.6348 75.9273 72.5717 75.7615 72.514 75.6302C72.4558 75.4977 72.4051 75.4049 72.3921 75.3855C72.3664 75.347 72.3759 75.3029 72.3854 75.2777C72.3963 75.2491 72.4156 75.221 72.4397 75.1999C72.4632 75.1794 72.4989 75.159 72.5419 75.1624C72.5885 75.1661 72.6242 75.1959 72.6475 75.2367C72.6829 75.2986 72.729 75.4087 72.8015 75.6039C72.8745 75.8006 72.9758 76.0882 73.1212 76.5084C73.2005 76.7375 73.2869 77.0047 73.3719 77.2759C73.5094 77.7144 73.6425 78.1612 73.7371 78.4789C73.8002 78.6904 73.8461 78.8447 73.865 78.9013C73.889 78.9733 73.9236 79.1415 73.9594 79.3299C73.9937 79.511 74.0301 79.7165 74.0605 79.8869C74.0912 80.0592 74.1151 80.1919 74.125 80.2314C74.1262 80.2364 74.1277 80.2427 74.1295 80.2502C74.1515 80.3414 74.2159 80.6083 74.3569 80.8578C74.5099 81.1284 74.7423 81.3609 75.094 81.3463C75.2701 81.3389 75.3844 81.2714 75.4612 81.1731C75.5402 81.0719 75.5839 80.9324 75.6044 80.7761C75.6356 80.5381 75.6117 80.2832 75.5944 80.0985C75.5887 80.0383 75.5838 79.9855 75.5817 79.9432C75.5658 79.6256 75.4054 78.726 75.2756 78.0448C75.1467 77.3679 74.8885 76.2865 74.743 75.7047C74.7263 75.6378 74.7067 75.5586 74.6846 75.4697C74.514 74.7818 74.2005 73.5178 74.0014 72.9631C73.8213 72.4615 73.4646 71.6479 73.3083 71.3031C73.2993 71.2831 73.301 71.2599 73.3129 71.2414C73.3248 71.2229 73.3452 71.2118 73.3672 71.2118C73.4939 71.2118 73.6819 71.2688 73.8581 71.3397C74.0364 71.4114 74.2149 71.5024 74.3253 71.5789C74.4254 71.6482 74.4989 71.7382 74.5773 71.8344C74.5885 71.8481 74.5997 71.8619 74.6112 71.8758C74.7045 71.989 74.818 72.118 75.0062 72.2592C75.1909 72.3977 75.4519 72.5074 75.7287 72.5585C76.0056 72.6095 76.2918 72.6007 76.5281 72.5092C76.7533 72.422 76.8492 72.2506 76.869 72.0772C76.8895 71.8985 76.8284 71.7256 76.7481 71.6454C76.6543 71.5516 76.5402 71.461 76.4287 71.3738L76.4038 71.3543C76.3028 71.2755 76.2044 71.1986 76.1339 71.1282C76.0514 71.0456 76.0232 70.9747 75.9977 70.9045L75.9939 70.8943C75.9712 70.8316 75.9486 70.769 75.8855 70.6848C75.7447 70.4972 75.4586 70.2264 75.2346 70.0504C75.1264 69.9654 74.9535 69.8669 74.773 69.7695C74.7204 69.7411 74.667 69.7128 74.6149 69.6851C74.4912 69.6195 74.374 69.5573 74.2876 69.5054C74.1587 69.4281 74.0486 69.3217 73.9458 69.2189C73.9355 69.2086 73.9254 69.1984 73.9152 69.1882C73.822 69.0947 73.7339 69.0063 73.6367 68.9369C73.4143 68.778 72.8528 68.4409 72.2756 68.2004L72.2754 68.2004C72.107 68.1297 71.7444 67.9816 71.6192 67.9441C71.537 67.9194 71.2846 67.838 71.0339 67.7381C70.9087 67.6882 70.7826 67.6332 70.6779 67.5779C70.6255 67.5502 70.5776 67.522 70.5374 67.4937C70.4979 67.4659 70.4625 67.4358 70.4384 67.4037C70.43 67.3925 70.4206 67.3764 70.4104 67.3571C70.4044 67.3456 70.3981 67.333 70.3917 67.3196C70.3735 67.282 70.3515 67.2331 70.3262 67.1745C70.2755 67.0571 70.2107 66.8986 70.1356 66.7091C69.9853 66.3299 69.7932 65.8248 69.589 65.2719C69.1807 64.1664 68.7236 62.868 68.4564 62.0015C68.2118 61.2082 68.0012 60.1116 67.7577 58.8431C67.7344 58.722 67.7109 58.5993 67.687 58.4751C67.4122 57.0488 67.0893 55.4267 66.6294 53.7727C65.786 50.739 65.0112 49.3093 64.3402 48.0711C64.2799 47.9598 64.2204 47.85 64.1618 47.7408C64.0013 47.4417 63.8618 47.1965 63.7389 46.9804C63.3198 46.2433 63.0929 45.8443 62.8785 44.7976C62.7421 44.1316 62.4525 43.2423 62.1554 42.3833C62.0612 42.1108 61.9661 41.8413 61.8751 41.5832C61.68 41.03 61.5035 40.5293 61.3929 40.1645C61.2657 39.7447 60.9508 39.0952 60.6058 38.45C60.2616 37.8064 59.8905 37.1722 59.654 36.7852C59.6486 36.7763 59.6454 36.7662 59.6447 36.7558C59.6176 36.3559 59.5637 35.2726 59.5637 34.133C59.5637 32.711 59.4335 29.9815 58.0556 27.9627C57.4106 27.0177 56.8838 26.4613 56.3191 26.0598C55.7534 25.6575 55.1465 25.408 54.3333 25.0806C54.2144 25.0327 54.0911 24.9832 53.963 24.9313C53.0321 24.5541 52.4031 24.4419 51.7772 24.3453C51.7305 24.3381 51.6839 24.331 51.6371 24.3238C51.0543 24.235 50.4532 24.1433 49.6021 23.8495C47.7731 23.2183 46.2335 22.5217 45.3397 22.0017C44.8951 21.743 44.4636 21.4786 44.1388 21.2293C43.9765 21.1048 43.8386 20.9824 43.7387 20.8648C43.6399 20.7485 43.5719 20.6297 43.5622 20.5126C43.5533 20.4063 43.5493 20.0652 43.5481 19.6185C43.5456 18.7165 43.5548 17.3671 43.562 16.579C43.5621 16.5647 43.567 16.5508 43.5758 16.5396C43.645 16.4517 43.7045 16.3191 43.7554 16.1578C43.806 15.9976 43.8463 15.8142 43.8795 15.6287C43.9127 15.4433 43.9385 15.2572 43.96 15.0915C43.9656 15.0485 43.971 15.0067 43.9761 14.9667C43.9905 14.8534 44.0032 14.7538 44.0153 14.6782C44.0426 14.5076 44.0553 14.3489 44.0648 14.2299C44.0664 14.2101 44.0678 14.1914 44.0693 14.1739C44.0741 14.1161 44.079 14.0641 44.0874 14.0344C44.0896 14.0269 44.0935 14.0146 44.1014 14.0031C44.1089 13.9921 44.1326 13.9655 44.1719 13.9724C44.2012 13.9776 44.2166 13.9991 44.2206 14.0048C44.227 14.0138 44.2318 14.0239 44.2356 14.0326C44.2378 14.0377 44.2399 14.0428 44.2421 14.0479C44.2653 14.1028 44.2898 14.1607 44.3445 14.2137C44.4028 14.2705 44.5018 14.3266 44.6852 14.3495C44.7523 14.3579 44.8241 14.3247 44.9046 14.2407C44.9844 14.1573 45.0624 14.0343 45.1395 13.8902C45.2098 13.7587 45.2773 13.6136 45.3437 13.4708L45.3619 13.4317C45.4336 13.2777 45.5046 13.1274 45.5751 13.0071C45.7069 12.7823 45.8224 12.4071 45.909 11.9882C45.9952 11.5712 46.0513 11.118 46.0673 10.7418C46.0746 10.5707 46.0624 10.4267 46.036 10.3059C45.9921 10.1056 45.9088 9.9688 45.8082 9.87641C45.7072 9.78373 45.5849 9.73223 45.4577 9.70909C45.3461 9.68882 45.24 9.74427 45.1458 9.83928C45.0525 9.93348 44.9822 10.0561 44.9469 10.1395C44.9344 10.1688 44.9025 10.1847 44.8716 10.1769C44.8406 10.1691 44.82 10.14 44.823 10.1083C44.874 9.55755 44.9305 8.66807 44.9338 7.79089C44.9372 6.91071 44.8869 6.053 44.7288 5.55972C44.5295 4.93782 43.9719 3.7835 42.9632 2.78564C41.9558 1.78909 40.4998 0.949585 38.4995 0.949585C36.4992 0.949585 35.0439 1.78908 34.0374 2.78562ZM47.8739 146.683C47.874 146.683 47.874 146.684 47.8741 146.684C47.8732 146.682 47.8733 146.682 47.8739 146.683Z" fill="#C58659"/>
<path d="M36.9336 10.2919C37.1437 10.2919 37.1276 10.1141 37.0306 10.0495C36.9862 10.0199 36.7652 9.788 36.3556 9.69062C36.2389 9.66287 36.1126 9.64539 35.98 9.64539C35.8481 9.64539 35.723 9.6683 35.6082 9.70467C35.3064 9.80024 34.9784 10.0857 34.8809 10.1949C34.9994 10.3296 35.3108 10.599 35.8668 10.599C36.5619 10.599 36.6584 10.2919 36.9336 10.2919Z" fill="white"/>
<path d="M40.0693 10.2919C39.8592 10.2919 39.8753 10.1141 39.9723 10.0495C40.0167 10.0199 40.2377 9.788 40.6473 9.69062C40.7641 9.66287 40.8903 9.64539 41.0229 9.64539C41.1548 9.64539 41.2799 9.6683 41.3947 9.70467C41.6965 9.80024 42.0245 10.0857 42.1221 10.1949C42.0035 10.3296 41.6921 10.599 41.1361 10.599C40.4411 10.599 40.3446 10.2919 40.0693 10.2919Z" fill="white"/>
<path d="M37.8555 57.2465C37.8555 57.4243 38.0333 57.6668 38.502 57.6668C38.9707 57.6668 39.1485 57.4243 39.1485 57.2465C39.1485 57.0687 38.9869 56.8263 38.502 56.8263C38.0171 56.8263 37.8555 57.0687 37.8555 57.2465Z" fill="#C07B47"/>
<path d="M30.4191 37.3819C30.7276 37.6389 30.5484 37.9595 30.2737 38.1254C29.9989 38.2912 29.5302 38.3193 29.2554 38.1254C28.9719 37.9252 29.0095 37.6685 29.2069 37.4465C29.4655 37.1556 30.0312 37.0586 30.4191 37.3819Z" fill="#C07B47"/>
<path d="M46.5825 37.3819C46.2741 37.6389 46.4532 37.9595 46.728 38.1254C47.0028 38.2912 47.4715 38.3193 47.7463 38.1254C48.0298 37.9252 47.9921 37.6685 47.7948 37.4465C47.5362 37.1556 46.9704 37.0586 46.5825 37.3819Z" fill="#C07B47"/>
<path d="M3.63489 71.2764C3.4086 71.2764 2.9237 71.4865 2.71357 71.632C2.50345 71.7775 2.42263 72.0199 2.03471 72.3108C1.64679 72.6018 0.951763 72.7634 0.450699 72.5695C-0.0503661 72.3755 0.0142874 71.7936 0.208248 71.5997C0.402208 71.4057 0.676986 71.2279 0.822456 71.0824C0.967927 70.937 0.919436 70.84 1.06491 70.646C1.21038 70.4521 1.50132 70.1773 1.72761 69.9995C1.95389 69.8217 2.43879 69.5954 2.68124 69.4499C2.92369 69.3045 3.10149 69.0458 3.32778 68.8842C3.55407 68.7226 4.11978 68.3831 4.70167 68.1407C4.86869 68.0706 5.23506 67.9209 5.36437 67.8821C5.526 67.8336 6.3665 67.5588 6.51197 67.3649C6.65744 67.1709 7.95051 63.7119 8.4839 61.9824C9.01729 60.253 9.38905 57.0688 10.3104 53.7553C11.2317 50.4418 12.0722 49.0356 12.7834 47.7102C13.4945 46.3848 13.7855 46.1262 14.0603 44.7846C14.335 43.4431 15.224 41.2125 15.5473 40.1457C15.8059 39.2923 16.8188 37.5273 17.2929 36.7514C17.3199 36.3527 17.3738 35.2709 17.3738 34.133C17.3738 32.7106 17.5031 29.9628 18.8931 27.9262C20.1883 26.0286 21.0204 25.6746 22.6447 25.0206M3.63489 71.2764C3.81592 71.2764 3.91505 71.2979 3.94199 71.3087C4.5627 71.5296 6.03654 71.8389 6.96621 71.3087C7.89589 70.7786 8.30071 70.4844 8.38692 70.4036M3.63489 71.2764C3.47864 71.6212 3.12089 72.4369 2.93986 72.9412C2.71357 73.5716 2.34182 75.1071 2.19635 75.689C2.05088 76.2709 1.79226 77.3538 1.66295 78.0327C1.53365 78.7115 1.37201 79.6167 1.35585 79.94C1.33969 80.2632 1.12956 81.3785 1.9054 81.4108C2.68125 81.4431 2.90753 80.3764 2.93986 80.2471C2.96104 80.1624 3.03769 79.7032 3.10623 79.3419M23.9549 42.0853C24.3589 43.3299 25.3746 45.7059 25.6332 46.7404C25.8919 47.7748 25.9565 47.8395 26.2151 48.389L26.2376 48.4368C26.4886 48.9697 26.7342 49.4912 26.797 50.1347C26.8105 50.2728 26.8338 50.4475 26.8622 50.6519M23.9549 42.0853C23.3003 44.4063 22.1822 46.4896 20.7196 48.9709C20.6226 49.542 20.3446 51.1174 20.0084 52.8501C19.5881 55.016 18.0365 58.6528 15.5796 61.8855C13.1228 65.1181 12.3146 66.8961 12.0883 67.3649C11.862 67.8336 11.5873 68.6094 11.3448 69.1913C11.1024 69.7732 11.167 70.1126 11.2802 70.9046C11.3933 71.6966 11.0862 72.6664 10.9407 73.5231C10.8677 73.9533 10.7457 74.4813 10.6199 74.9455C10.4951 75.4056 10.3665 75.8029 10.278 75.9799C10.1002 76.3355 9.72848 77.3377 9.67999 77.5639C9.6315 77.7902 9.06578 79.5359 8.98496 79.746C8.90415 79.9561 8.56472 81.33 8.01516 81.2654C7.46561 81.2007 7.44944 80.7643 7.49793 80.2794C7.52001 80.0586 7.59238 79.7338 7.67075 79.4227M23.9549 42.0853C24.4729 40.2486 24.7007 38.2631 24.5793 35.8139M38.4993 0.884888C34.4584 0.884888 32.6158 4.2792 32.2117 5.53994C31.8885 6.54853 32.0124 9.00968 32.1148 10.1142C32.0393 9.93638 31.8173 9.59372 31.5329 9.64544C31.2595 9.69514 30.9957 9.86904 30.903 10.292M25.4571 146.371C25.441 146.436 25.2955 146.485 25.0369 146.485C24.7783 146.485 24.6328 146.145 24.6328 145.984C24.6328 145.822 24.5358 145.935 24.4388 145.628C24.3418 145.321 24.3095 144.432 24.8429 143.543C25.2384 142.884 25.8473 142.464 26.2279 142.18M26.4269 146.614C26.3623 146.824 26.0713 146.889 25.7319 146.84C25.4603 146.801 25.4356 146.274 25.4571 146.016C25.4463 145.876 25.4733 145.537 25.6672 145.305M27.5068 146.614C27.4546 146.84 27.3064 147.066 26.9603 147.066C26.4431 147.066 26.3892 146.538 26.4269 146.274C26.4377 146.07 26.4916 145.625 26.6209 145.482M27.5068 146.614C27.5326 146.502 27.5349 146.391 27.526 146.307C27.5314 146.054 27.5616 145.534 27.6392 145.482M27.5068 146.614C27.4809 146.899 27.6004 147.471 28.2857 147.471C29.1424 147.471 29.0131 146.679 29.0777 146.646C29.1424 146.614 29.2878 146.614 29.3202 146.646M29.3202 146.646C29.3525 146.679 29.2555 147.115 29.4656 147.325C29.6758 147.535 29.9829 147.713 30.6456 147.681C32.3104 147.599 32.6337 145.725 32.6821 145.563C32.7306 145.402 33.0701 144.787 32.6498 144.044C32.4979 143.775 32.384 143.593 32.3104 143.445M29.3202 146.646C29.2986 146.328 29.3202 145.641 29.5788 145.434M38.0322 78.7968V80.4895C38.0484 83.8192 37.2887 87.1327 36.9654 88.7167C36.868 89.1941 36.7118 89.8831 36.5394 90.6401M38.0322 78.7968V78.7847M38.0322 78.7968C38.179 78.8151 38.3351 78.8247 38.501 78.8247C38.6668 78.8247 38.8229 78.8151 38.9697 78.7968M26.5094 29.4132C25.8462 30.1406 24.5196 31.8151 24.5196 32.6944C24.5196 33.7935 24.3086 36.9777 25.3925 38.2869C27.1526 40.4131 28.9322 40.8084 30.9203 40.8084C33.5354 40.8084 33.8136 40.7114 34.5894 40.5498M31.4214 52.8501C31.4376 51.7025 31.2598 48.9709 31.7608 48.0496C32.2619 47.1283 34.2662 44.7846 38.501 44.7846C42.7358 44.7846 44.74 47.1283 45.2411 48.0496C45.7422 48.9709 45.5644 51.7025 45.5805 52.8501M26.8622 50.6519C26.9703 51.4283 27.1526 52.6341 27.1526 53.9008C27.1526 55.5009 26.5546 56.8748 26.5869 58.378C26.5973 58.8621 26.6111 59.2574 26.6249 59.5903M26.8622 50.6519C26.9919 51.2715 27.6683 52.9019 29.3363 54.4665M26.6249 59.5903C26.6541 60.291 26.6839 60.7151 26.6839 61.1096C26.6839 61.6915 26.0373 62.7906 25.7464 65.0212C25.5242 66.7249 25.3114 67.5328 25.18 68.4316M26.6249 59.5903C26.6658 60.4954 28.4496 60.851 29.3363 60.9157M22.6447 25.0206C22.7636 24.9727 22.8868 24.9232 23.0148 24.8713C24.8897 24.1117 25.5524 24.4188 27.3789 23.7884C29.2053 23.158 30.7409 22.463 31.6299 21.9458C32.5188 21.4285 33.3432 20.8951 33.3755 20.5072C33.3841 20.4042 33.3882 20.0665 33.3894 19.6182M22.6447 25.0206C24.3095 24.4512 26.3784 24.6935 28.6898 25.2754M32.7306 26.0028C33.4795 26.0243 35.1616 26.1095 35.8987 26.2776C36.82 26.4877 36.9978 26.3907 36.2381 25.2754C35.9525 24.839 35.3491 23.8595 35.2198 23.4328M33.3894 19.6182C33.3918 18.7167 33.3827 17.3676 33.3755 16.5795M33.3894 19.6182C33.4069 20.7928 33.3707 23.2712 33.0862 23.7884M15.161 49.375C15.2904 49.8653 15.5263 50.9138 15.4358 51.1853M15.4358 51.1853L15.2419 51.7672M15.4358 51.1853C16.0694 51.0431 16.939 50.6196 17.2946 50.4256M25.18 68.4316C25.1394 68.7095 25.1066 68.9962 25.0837 69.3206C24.7125 71.6158 23.9636 76.9077 23.9378 79.7137C23.9054 83.2211 24.1964 87.4236 24.2287 88.7652C24.261 90.1067 24.4388 91.9655 24.8914 93.6465C24.9344 93.8062 24.9808 93.9681 25.0295 94.1314M25.18 68.4316C25.3966 67.2032 26.4916 64.5847 27.2513 64.4231M25.0295 94.1314C25.4935 95.6868 26.1714 97.3692 26.2006 98.4955C26.233 99.7401 25.7965 100.015 25.7642 101.938C25.7319 103.862 25.845 105.834 25.8774 106.351C25.9097 106.868 24.6166 112.849 24.8267 115.596C25.0369 118.344 25.8935 123.5 26.2653 125.876C26.637 128.252 27.4129 132.487 27.2513 134.572C27.0896 136.657 27.025 136.787 27.025 137.255C27.025 137.724 27.2513 138.435 27.2513 139.049C27.2513 139.664 27.3321 140.116 27.2513 140.294C27.1704 140.472 26.9765 140.65 26.831 141.005C26.6855 141.361 26.7502 141.652 26.5239 141.926C26.4654 141.998 26.3605 142.08 26.2279 142.18M25.0295 94.1314C25.5864 95.8686 26.8957 97.8813 28.0917 99.0127M36.5394 90.6401L36.5001 90.8126C36.1085 92.531 35.6514 94.5371 35.6077 95.2143C35.5611 95.9367 35.313 97.633 35.1236 98.7056M36.5394 90.6401C36.8838 86.2695 36.0618 82.5692 35.6077 81.2654M35.1236 98.7056C35.0502 99.1212 34.9856 99.4431 34.945 99.5785C34.7995 100.063 34.8804 102.892 34.7187 104.153C34.5571 105.413 33.8136 106.707 33.4257 108.759C33.0377 110.812 34.0722 113.608 34.25 115.806C34.4278 118.005 34.4763 120.494 33.5226 123.436C32.569 126.377 32.0356 130.725 32.0033 132.6C31.971 134.475 32.7791 136.172 32.8276 137.045C32.8761 137.918 32.7468 139.421 32.7306 139.809C32.7145 140.197 32.8923 140.294 32.8923 140.957C32.8923 141.619 32.5205 142.153 32.3104 142.686C32.2142 142.93 32.1891 143.08 32.2306 143.241M35.1236 98.7056C34.9628 99.4916 34.3636 100.517 33.4257 100.946M29.6434 98.35C30.9527 100.775 32.1326 101.34 33.1024 101.065C33.2142 101.034 33.322 100.994 33.4257 100.946M33.4257 100.946C33.5442 101.228 33.778 101.967 33.7651 102.666M26.8633 101.938C26.6748 103.199 26.4398 105.969 27.0088 106.965C27.72 108.21 29.7242 108.355 30.8234 107.66M26.8633 108.016C27.3967 108.705 28.4635 111.016 28.4635 114.74C28.4635 118.464 28.679 122.94 28.7868 124.713M32.0033 136.269C31.777 136.722 31.5992 137.74 32.0033 138.403M32.3104 143.445C32.2736 143.371 32.2469 143.305 32.2306 143.241M32.3104 143.445C32.281 143.378 32.2545 143.31 32.2306 143.241M32.2306 143.241C32.0043 142.587 32.0141 141.825 32.1164 141.328M29.5303 37.8344C29.5788 37.899 29.8051 38.0445 30.0637 37.8829M37.1271 12.9428C37.0624 13.1206 36.82 13.4923 37.3049 13.7186M37.5473 13.5085C37.6712 13.4654 37.9352 13.4438 38.1292 13.6378M38.2747 13.8641C38.3393 13.9029 38.4525 13.9126 38.501 13.9126C38.5494 13.9126 38.6626 13.9029 38.7272 13.8641M36.2704 15.7229C36.9008 15.6582 37.2241 15.5451 37.6443 15.4966C38.0645 15.4481 38.2585 15.5936 38.3232 15.5936H38.6788C38.7434 15.5936 38.9374 15.4481 39.3576 15.4966C39.7779 15.5451 40.1011 15.6582 40.7315 15.7229M36.9008 15.3188C37.0624 15.2541 37.5958 14.8016 37.9837 14.8339C38.3717 14.8662 38.3717 14.8985 38.501 14.8985C38.6303 14.8985 38.6303 14.8662 39.0182 14.8339C39.4061 14.8016 39.9395 15.2541 40.1011 15.3188M37.4988 16.2239C37.8059 16.3047 38.2747 16.3047 38.501 16.3047C38.7272 16.3047 39.196 16.3047 39.5031 16.2239M38.2747 17.0159H38.7272M32.2134 11.4881C32.2134 11.7467 31.9888 11.8437 32.0518 12.1023C32.1148 12.3609 32.4559 12.6357 32.4559 12.7811M31.4214 11.7628C31.3891 11.5527 31.6962 11.2941 31.8093 11.1163C31.8642 11.0301 31.8886 10.9705 31.8993 10.9062M31.9063 10.6476C31.9063 10.7641 31.9106 10.8378 31.8993 10.9062M31.8993 10.9062C31.9339 11.0085 32.0001 11.2553 31.9871 11.4234M31.3083 12.2962C31.3891 12.4956 31.5863 12.9395 31.7285 13.1206M30.903 10.292C30.8751 10.4192 30.8627 10.5689 30.8702 10.7445C30.9025 11.5042 31.0965 12.571 31.3712 13.0397C31.646 13.5085 31.937 14.4621 32.3249 14.4136C32.7128 14.3651 32.7775 14.1712 32.8259 14.058C32.8744 13.9449 32.8583 14.2843 32.9229 14.6884C32.9876 15.0925 33.0361 16.0785 33.4725 16.7088C33.9089 17.3392 34.772 18.155 35.6239 18.7131C36.6907 19.412 37.4827 19.6182 38.501 19.6182C39.5193 19.6182 40.3113 19.412 41.378 18.7131C42.2299 18.155 43.093 17.3392 43.5294 16.7088C43.9659 16.0785 44.0143 15.0925 44.079 14.6884C44.1437 14.2843 44.1275 13.9449 44.176 14.058C44.2245 14.1712 44.2891 14.3651 44.677 14.4136C45.065 14.4621 45.3559 13.5085 45.6307 13.0397C45.9055 12.571 46.0994 11.5042 46.1317 10.7445C46.1392 10.5689 46.1268 10.4192 46.0989 10.292M30.903 10.292C31.225 9.46764 31.7285 10.0818 31.8093 10.3243M8.38692 73.5231C7.93434 73.3776 7.03087 73.1998 5.81694 73.2483M3.10623 79.3419C3.14233 79.1517 3.17617 78.9886 3.19847 78.9217C3.24557 78.7804 3.46416 78.0217 3.69186 77.2952M3.10623 79.3419C2.93986 79.0833 2.71357 78.9217 2.03471 78.9217M3.69186 77.2952C3.77677 77.0243 3.86296 76.7578 3.94199 76.5295C4.23293 75.689 4.34607 75.3819 4.41073 75.2687C4.47538 75.1556 4.58853 75.3011 4.5562 75.3496C4.52387 75.398 4.34607 75.7375 4.26526 76.0769C4.18444 76.4163 3.69954 78.1297 3.5864 78.6954C3.47325 79.2611 3.48942 79.5197 3.39244 80.0531C3.29546 80.5865 3.053 81.427 3.053 82.0897C3.053 82.7524 3.19847 83.1888 3.65105 83.1888C4.10362 83.1888 4.31375 82.8817 4.3784 82.7685C4.44305 82.6554 4.63702 82.2028 4.71783 81.8472C4.79865 81.4916 4.94412 80.6188 5.00877 80.3602C5.07343 80.1016 5.60682 77.7417 5.78461 77.2245C5.96241 76.7073 6.10788 76.2062 6.1887 76.1254C6.26952 76.0446 6.43115 76.1254 6.38266 76.2224C6.33417 76.3194 5.8331 78.0004 5.67147 78.8085C5.50984 79.6167 5.49367 80.0854 5.3482 80.6511C5.20273 81.2169 4.68551 82.914 5.62298 83.0272C6.56046 83.1403 6.88372 81.0552 6.9807 80.6511C7.07768 80.2471 7.41712 79.1803 7.48177 78.8732C7.54642 78.5661 7.77271 77.5963 7.90202 77.2245C8.03132 76.8528 8.20912 76.1739 8.38692 76.2224C8.56472 76.2709 8.19296 77.2245 8.1283 77.4508C8.06365 77.6771 7.96667 78.3236 7.90202 78.5661C7.86681 78.6981 7.76448 79.0507 7.67075 79.4227M3.69186 77.2952C3.63489 77.0467 2.65227 76.8366 2.42431 76.8366M3.29713 74.4929C4.12146 74.9455 4.73232 75.3819 5.3482 75.7213C5.96409 76.0607 7.16185 76.287 7.53193 76.2224C7.828 76.1707 8.94836 76.1577 9.47154 76.1254M3.5864 80.5865C3.80302 80.5865 4.31353 80.6285 4.62252 80.7966M4.04064 77.871C4.29443 77.8495 4.87278 77.871 5.15592 78.1297M5.67147 80.4572C5.89293 80.4302 6.40696 80.4184 6.69144 80.5865M6.1887 78.1297C6.36111 78.1071 6.87079 78.153 7.20699 78.259M7.67075 79.4227C7.72589 79.2092 8.38692 79.1156 8.825 79.3419M8.38692 77.6286C8.45324 77.6286 8.79268 77.4508 9.29374 77.6286M9.21292 69.7409C8.87349 70.3712 9.01896 71.9391 9.47154 72.4401M26.2279 142.18C27.2694 141.486 29.2975 139.163 29.0777 135.413M25.4571 143.753C26.5778 143.607 29.3137 143.485 31.2921 144.157M38.501 42.7804V39.4345M73.367 71.2764C73.5933 71.2764 74.0782 71.4865 74.2883 71.632C74.4985 71.7775 74.5793 72.0199 74.9672 72.3108C75.3551 72.6018 76.0502 72.7634 76.5512 72.5695C77.0523 72.3755 76.9876 71.7936 76.7937 71.5997C76.5997 71.4057 76.3249 71.2279 76.1795 71.0824C76.034 70.937 76.0825 70.84 75.937 70.646C75.7915 70.4521 75.5006 70.1773 75.2743 69.9995C75.048 69.8217 74.5631 69.5954 74.3207 69.4499C74.0782 69.3045 73.9004 69.0458 73.6741 68.8842C73.4478 68.7226 72.8821 68.3831 72.3003 68.1407C72.1332 68.0706 71.7669 67.9209 71.6376 67.8821C71.4759 67.8336 70.6354 67.5588 70.49 67.3649C70.3445 67.1709 69.0514 63.7119 68.518 61.9824C67.9846 60.253 67.6129 57.0688 66.6916 53.7553C65.7702 50.4418 64.9298 49.0356 64.2186 47.7102C63.5074 46.3848 63.2164 46.1262 62.9417 44.7846C62.6669 43.4431 61.7779 41.2125 61.4546 40.1457C61.196 39.2923 60.1831 37.5273 59.709 36.7514C59.682 36.3527 59.6282 35.2709 59.6282 34.133C59.6282 32.7106 59.4989 29.9628 58.1088 27.9262C56.8136 26.0286 55.9815 25.6746 54.3572 25.0206M73.367 71.2764C73.186 71.2764 73.0869 71.2979 73.0599 71.3087C72.4392 71.5296 70.9654 71.8389 70.0357 71.3087C69.106 70.7786 68.7012 70.4844 68.615 70.4036M73.367 71.2764C73.5233 71.6212 73.881 72.4369 74.0621 72.9412C74.2883 73.5716 74.6601 75.1071 74.8056 75.689C74.951 76.2709 75.2097 77.3538 75.339 78.0327C75.4683 78.7115 75.6299 79.6167 75.6461 79.94C75.6622 80.2632 75.8724 81.3785 75.0965 81.4108C74.3207 81.4431 74.0944 80.3764 74.0621 80.2471C74.0409 80.1624 73.9642 79.7032 73.8957 79.3419M53.0471 42.0853C52.643 43.3299 51.6273 45.7059 51.3687 46.7404C51.1101 47.7748 51.0454 47.8395 50.7868 48.389L50.7643 48.4368C50.5133 48.9697 50.2677 49.4912 50.2049 50.1347C50.1914 50.2728 50.1681 50.4475 50.1397 50.6519M53.0471 42.0853C53.7017 44.4063 54.8197 46.4896 56.2823 48.9709C56.3793 49.542 56.6573 51.1174 56.9935 52.8501C57.4138 55.016 58.9655 58.6528 61.4223 61.8855C63.8791 65.1181 64.6873 66.8961 64.9136 67.3649C65.1399 67.8336 65.4147 68.6094 65.6571 69.1913C65.8996 69.7732 65.8349 70.1126 65.7218 70.9046C65.6086 71.6966 65.9157 72.6664 66.0612 73.5231C66.1342 73.9533 66.2562 74.4813 66.3821 74.9455C66.5068 75.4056 66.6354 75.8029 66.7239 75.9799C66.9017 76.3355 67.2734 77.3377 67.3219 77.5639C67.3704 77.7902 67.9361 79.5359 68.017 79.746C68.0978 79.9561 68.4372 81.33 68.9868 81.2654C69.5363 81.2007 69.5525 80.7643 69.504 80.2794C69.4819 80.0586 69.4095 79.7338 69.3312 79.4227M53.0471 42.0853C52.529 40.2486 52.3012 38.2631 52.4226 35.8139M38.5026 0.884888C42.5435 0.884888 44.3861 4.2792 44.7902 5.53994C45.1135 6.54853 44.9895 9.00968 44.8872 10.1142C44.9626 9.93638 45.1846 9.59372 45.469 9.64544C45.7424 9.69514 46.0062 9.86904 46.0989 10.292M51.5448 146.371C51.561 146.436 51.7064 146.485 51.9651 146.485C52.2237 146.485 52.3691 146.145 52.3691 145.984C52.3691 145.822 52.4661 145.935 52.5631 145.628C52.6601 145.321 52.6924 144.432 52.159 143.543C51.7635 142.884 51.1546 142.464 50.7741 142.18M50.575 146.614C50.6397 146.824 50.9306 146.889 51.27 146.84C51.5416 146.801 51.5664 146.274 51.5448 146.016C51.5556 145.876 51.5286 145.537 51.3347 145.305M49.4951 146.614C49.5473 146.84 49.6956 147.066 50.0416 147.066C50.5588 147.066 50.6127 146.538 50.575 146.274C50.5642 146.07 50.5103 145.625 50.381 145.482M49.4951 146.614C49.4693 146.502 49.467 146.391 49.4759 146.307C49.4705 146.054 49.4403 145.534 49.3627 145.482M49.4951 146.614C49.521 146.899 49.4015 147.471 48.7162 147.471C47.8596 147.471 47.9889 146.679 47.9242 146.646C47.8596 146.614 47.7141 146.614 47.6818 146.646M47.6818 146.646C47.6494 146.679 47.7464 147.115 47.5363 147.325C47.3262 147.535 47.0191 147.713 46.3564 147.681C44.6915 147.599 44.3683 145.725 44.3198 145.563C44.2713 145.402 43.9319 144.787 44.3521 144.044C44.504 143.775 44.6179 143.593 44.6915 143.445M47.6818 146.646C47.7033 146.328 47.6818 145.641 47.4231 145.434M38.9697 78.7968V80.4895C38.9535 83.8192 39.7132 87.1327 40.0365 88.7167C40.1339 89.1941 40.2901 89.8831 40.4625 90.6401M38.9697 78.7968V78.7847M50.4925 29.4132C51.1558 30.1406 52.4823 31.8151 52.4823 32.6944C52.4823 33.7935 52.6933 36.9777 51.6095 38.2869C49.8493 40.4131 48.0697 40.8084 46.0816 40.8084C43.4665 40.8084 43.1883 40.7114 42.4125 40.5498M50.1397 50.6519C50.0316 51.4283 49.8493 52.6341 49.8493 53.9008C49.8493 55.5009 50.4474 56.8748 50.415 58.378C50.4046 58.8621 50.3909 59.2574 50.377 59.5903M50.1397 50.6519C50.01 51.2715 49.3337 52.9019 47.6656 54.4665M50.377 59.5903C50.3478 60.291 50.3181 60.7151 50.3181 61.1096C50.3181 61.6915 50.9646 62.7906 51.2555 65.0212C51.4778 66.7249 51.6906 67.5328 51.8219 68.4316M50.377 59.5903C50.3361 60.4954 48.5524 60.851 47.6656 60.9157M54.3572 25.0206C54.2383 24.9727 54.1151 24.9232 53.9871 24.8713C52.1122 24.1117 51.4495 24.4188 49.623 23.7884C47.7966 23.158 46.2611 22.463 45.3721 21.9458C44.4831 21.4285 43.6587 20.8951 43.6264 20.5072C43.6178 20.4042 43.6138 20.0665 43.6125 19.6182M54.3572 25.0206C52.6924 24.4512 50.6235 24.6935 48.3121 25.2754M44.2713 26.0028C43.5224 26.0243 41.8403 26.1095 41.1033 26.2776C40.182 26.4877 40.0042 26.3907 40.7638 25.2754C41.0494 24.839 41.6528 23.8595 41.7821 23.4328M43.6125 19.6182C43.6101 18.7167 43.6192 17.3676 43.6264 16.5795M43.6125 19.6182C43.5951 20.7928 43.6312 23.2712 43.9157 23.7884M61.8409 49.375C61.7116 49.8653 61.4756 50.9138 61.5661 51.1853M61.5661 51.1853L61.7601 51.7672M61.5661 51.1853C60.9325 51.0431 60.0629 50.6196 59.7073 50.4256M51.8219 68.4316C51.8625 68.7095 51.8953 68.9962 51.9182 69.3206C52.2894 71.6158 53.0383 76.9077 53.0642 79.7137C53.0965 83.2211 52.8055 87.4236 52.7732 88.7652C52.7409 90.1067 52.5631 91.9655 52.1105 93.6465C52.0675 93.8062 52.0212 93.9681 51.9725 94.1314M51.8219 68.4316C51.6054 67.2032 50.5103 64.5847 49.7507 64.4231M51.9725 94.1314C51.5085 95.6868 50.8305 97.3692 50.8013 98.4955C50.769 99.7401 51.2054 100.015 51.2377 101.938C51.27 103.862 51.1569 105.834 51.1246 106.351C51.0922 106.868 52.3853 112.849 52.1752 115.596C51.9651 118.344 51.1084 123.5 50.7366 125.876C50.3649 128.252 49.589 132.487 49.7507 134.572C49.9123 136.657 49.977 136.787 49.977 137.255C49.977 137.724 49.7507 138.435 49.7507 139.049C49.7507 139.664 49.6699 140.116 49.7507 140.294C49.8315 140.472 50.0254 140.65 50.1709 141.005C50.3164 141.361 50.2517 141.652 50.478 141.926C50.5365 141.998 50.6414 142.08 50.7741 142.18M51.9725 94.1314C51.4155 95.8686 50.1063 97.8813 48.9102 99.0127M40.4625 90.6401L40.5018 90.8126C40.8934 92.531 41.3505 94.5371 41.3942 95.2143C41.4408 95.9367 41.6889 97.633 41.8783 98.7056M40.4625 90.6401C40.1181 86.2695 40.9401 82.5692 41.3942 81.2654M41.8783 98.7056C41.9517 99.1212 42.0163 99.4431 42.0569 99.5785C42.2024 100.063 42.1216 102.892 42.2832 104.153C42.4448 105.413 43.1883 106.707 43.5763 108.759C43.9642 110.812 42.9297 113.608 42.7519 115.806C42.5741 118.005 42.5256 120.494 43.4793 123.436C44.4329 126.377 44.9663 130.725 44.9986 132.6C45.031 134.475 44.2228 136.172 44.1743 137.045C44.1258 137.918 44.2551 139.421 44.2713 139.809C44.2874 140.197 44.1097 140.294 44.1097 140.957C44.1097 141.619 44.4814 142.153 44.6915 142.686C44.7877 142.93 44.8128 143.08 44.7714 143.241M41.8783 98.7056C42.0391 99.4916 42.6383 100.517 43.5763 100.946M47.3585 98.35C46.0493 100.775 44.8693 101.34 43.8995 101.065C43.7877 101.034 43.6799 100.994 43.5763 100.946M43.5763 100.946C43.4577 101.228 43.2239 101.967 43.2368 102.666M50.1386 101.938C50.3272 103.199 50.5621 105.969 49.9931 106.965C49.2819 108.21 47.2777 108.355 46.1786 107.66M50.1386 108.016C49.6052 108.705 48.5384 111.016 48.5384 114.74C48.5384 118.464 48.3229 122.94 48.2151 124.713M44.9986 136.269C45.2249 136.722 45.4027 137.74 44.9986 138.403M44.6915 143.445C44.7283 143.371 44.755 143.305 44.7714 143.241M44.6915 143.445C44.7209 143.378 44.7474 143.31 44.7714 143.241M44.7714 143.241C44.9976 142.587 44.9878 141.825 44.8855 141.328M47.4716 37.8344C47.4231 37.899 47.1969 38.0445 46.9382 37.8829M39.8748 12.9428C39.9395 13.1206 40.182 13.4923 39.697 13.7186M39.4546 13.5085C39.3307 13.4654 39.0667 13.4438 38.8727 13.6378M44.7885 11.4881C44.7885 11.7467 45.0131 11.8437 44.9501 12.1023C44.8872 12.3609 44.5461 12.6357 44.5461 12.7811M45.5805 11.7628C45.6128 11.5527 45.3057 11.2941 45.1926 11.1163C45.1377 11.0301 45.1133 10.9705 45.1026 10.9062M45.0956 10.6476C45.0956 10.7641 45.0913 10.8378 45.1026 10.9062M45.1026 10.9062C45.068 11.0085 45.0019 11.2553 45.0148 11.4234M45.6937 12.2962C45.6128 12.4956 45.4157 12.9395 45.2734 13.1206M46.0989 10.292C45.7769 9.46764 45.2734 10.0818 45.1926 10.3243M68.615 73.5231C69.0676 73.3776 69.9711 73.1998 71.185 73.2483M73.8957 79.3419C73.8596 79.1517 73.8257 78.9886 73.8034 78.9217C73.7564 78.7804 73.5378 78.0217 73.3101 77.2952M73.8957 79.3419C74.0621 79.0833 74.2883 78.9217 74.9672 78.9217M73.3101 77.2952C73.2251 77.0243 73.139 76.7578 73.0599 76.5295C72.769 75.689 72.6558 75.3819 72.5912 75.2687C72.5265 75.1556 72.4134 75.3011 72.4457 75.3496C72.478 75.398 72.6558 75.7375 72.7367 76.0769C72.8175 76.4163 73.3024 78.1297 73.4155 78.6954C73.5287 79.2611 73.5125 79.5197 73.6095 80.0531C73.7065 80.5865 73.9489 81.427 73.9489 82.0897C73.9489 82.7524 73.8034 83.1888 73.3509 83.1888C72.8983 83.1888 72.6882 82.8817 72.6235 82.7685C72.5589 82.6554 72.3649 82.2028 72.2841 81.8472C72.2033 81.4916 72.0578 80.6188 71.9931 80.3602C71.9285 80.1016 71.3951 77.7417 71.2173 77.2245C71.0395 76.7073 70.894 76.2062 70.8132 76.1254C70.7324 76.0446 70.5708 76.1254 70.6193 76.2224C70.6677 76.3194 71.1688 78.0004 71.3304 78.8085C71.4921 79.6167 71.5082 80.0854 71.6537 80.6511C71.7992 81.2169 72.3164 82.914 71.3789 83.0272C70.4415 83.1403 70.1182 81.0552 70.0212 80.6511C69.9242 80.2471 69.5848 79.1803 69.5201 78.8732C69.4555 78.5661 69.2292 77.5963 69.0999 77.2245C68.9706 76.8528 68.7928 76.1739 68.615 76.2224C68.4372 76.2709 68.809 77.2245 68.8736 77.4508C68.9383 77.6771 69.0352 78.3236 69.0999 78.5661C69.1351 78.6981 69.2374 79.0507 69.3312 79.4227M73.3101 77.2952C73.367 77.0467 74.3497 76.8366 74.5776 76.8366M73.7048 74.4929C72.8805 74.9455 72.2696 75.3819 71.6537 75.7213C71.0378 76.0607 69.8401 76.287 69.47 76.2224C69.1739 76.1707 68.0536 76.1577 67.5304 76.1254M73.4155 80.5865C73.1989 80.5865 72.6884 80.6285 72.3794 80.7966M72.9613 77.871C72.7075 77.8495 72.1291 77.871 71.846 78.1297M71.3304 80.4572C71.109 80.4302 70.595 80.4184 70.3105 80.5865M70.8132 78.1297C70.6408 78.1071 70.1311 78.153 69.7949 78.259M69.3312 79.4227C69.276 79.2092 68.615 79.1156 68.1769 79.3419M68.615 77.6286C68.5487 77.6286 68.2092 77.4508 67.7082 77.6286M67.789 69.7409C68.1284 70.3712 67.983 71.9391 67.5304 72.4401M50.7741 142.18C49.7325 141.486 47.7044 139.163 47.9242 135.413M51.5448 143.753C50.4241 143.607 47.6882 143.485 45.7098 144.157M30.2738 38.1253C30.5486 37.9595 30.7277 37.6388 30.4193 37.3818C30.0314 37.0585 29.4656 37.1555 29.207 37.4464C29.0097 37.6685 28.972 37.9252 29.2555 38.1253C29.5303 38.3193 29.999 38.2911 30.2738 38.1253ZM38.501 57.6668C38.0322 57.6668 37.8544 57.4244 37.8544 57.2466C37.8544 57.0688 38.0161 56.8263 38.501 56.8263C38.9859 56.8263 39.1475 57.0688 39.1475 57.2466C39.1475 57.4244 38.9697 57.6668 38.501 57.6668ZM37.0301 10.0657C37.1271 10.1303 37.1432 10.3081 36.9331 10.3081C36.6579 10.3081 36.5614 10.6152 35.8663 10.6152C35.3103 10.6152 34.9989 10.3458 34.8804 10.2112C34.9779 10.1019 35.3059 9.81646 35.6077 9.72088C35.7225 9.68452 35.8476 9.6616 35.9795 9.6616C36.1121 9.6616 36.2384 9.67909 36.3551 9.70684C36.7648 9.80421 36.9857 10.0361 37.0301 10.0657ZM29.5788 146.84C29.7673 146.695 30.5712 146.51 31.5022 146.937L31.9063 146.21C30.7425 145.848 29.9128 146 29.7404 146.21L29.5788 146.84ZM27.8331 146.84C27.9517 146.765 28.3859 146.659 28.7221 146.84L28.8029 146.388C28.6239 146.323 28.0887 146.232 27.8331 146.388V146.84ZM26.6745 146.533C26.793 146.458 27.0462 146.468 27.1755 146.533L27.2351 146.307C27.056 146.242 26.8795 146.21 26.6532 146.307L26.6745 146.533ZM25.6672 146.339C25.7858 146.264 26.039 146.274 26.1683 146.339L26.2279 146.113C26.0488 146.048 25.8723 146.016 25.646 146.113L25.6672 146.339ZM24.9158 146.21C25.0343 146.134 25.2632 146.08 25.3925 146.145V145.935C25.2134 145.87 25.1208 145.887 24.8945 145.984L24.9158 146.21ZM46.7281 38.1253C46.4533 37.9595 46.2742 37.6388 46.5826 37.3818C46.9706 37.0585 47.5363 37.1555 47.7949 37.4464C47.9923 37.6685 48.0299 37.9252 47.7464 38.1253C47.4716 38.3193 47.0029 38.2911 46.7281 38.1253ZM39.9718 10.0657C39.8748 10.1303 39.8587 10.3081 40.0688 10.3081C40.3441 10.3081 40.4406 10.6152 41.1356 10.6152C41.6916 10.6152 42.003 10.3458 42.1216 10.2112C42.024 10.1019 41.696 9.81646 41.3942 9.72088C41.2794 9.68452 41.1543 9.6616 41.0224 9.6616C40.8898 9.6616 40.7636 9.67909 40.6468 9.70684C40.2372 9.80421 40.0162 10.0361 39.9718 10.0657ZM47.4231 146.84C47.2346 146.695 46.4307 146.51 45.4997 146.937L45.0956 146.21C46.2594 145.848 47.0891 146 47.2615 146.21L47.4231 146.84ZM49.1688 146.84C49.0503 146.765 48.616 146.659 48.2798 146.84L48.199 146.388C48.378 146.323 48.9132 146.232 49.1688 146.388V146.84ZM50.3274 146.533C50.2089 146.458 49.9557 146.468 49.8264 146.533L49.7668 146.307C49.9459 146.242 50.1224 146.21 50.3487 146.307L50.3274 146.533ZM51.3347 146.339C51.2161 146.264 50.9629 146.274 50.8336 146.339L50.7741 146.113C50.9531 146.048 51.1297 146.016 51.3559 146.113L51.3347 146.339ZM52.0862 146.21C51.9676 146.134 51.7388 146.08 51.6095 146.145V145.935C51.7885 145.87 51.8811 145.887 52.1074 145.984L52.0862 146.21Z" stroke="black" stroke-width="0.129307" stroke-linecap="round" stroke-linejoin="round"/>
</svg>
